<svg xmlns="http://www.w3.org/2000/svg" width="250" height="161" viewBox="0 0 250 161">
<!-- SVG created with Arrow, by QuiverAI (https://quiver.ai) -->
  <path d="m244.6 147v0.79h-4.24v1.64h-30.31v6.04h-1.88v-21.1h1.88v5.73h25.43v-18.88h9.41v25.78h-0.29z" fill="#71DB87"/>
  <path d="m243.3 13.87v-1.16h-3.19v-1.3h-29.03v-6.22h-1.88v22.73h1.88v-6.43h24.39v21.24h8.84v-28.86h-1.01z" fill="#71DB87"/>
  <path d="m241.9 92.14h-6.68v6.57h6.68v-6.57z" fill="#71DB87"/>
  <path d="m241.9 99.72h-6.68v5.73h6.68v-5.73z" fill="#71DB87"/>
  <path d="m241.9 106.9h-6.68v5.73h6.68v-5.73z" fill="#71DB87"/>
  <path d="m241.9 114.5h-6.68v5.59h6.68v-5.59z" fill="#71DB87"/>
  <path d="m241.9 44.74h-6.68v5.73h6.68v-5.73z" fill="#71DB87"/>
  <path d="m241.9 51.91h-6.68v5.73h6.68v-5.73z" fill="#71DB87"/>
  <path d="m241.6 59.08h-6.68v5.73h6.68v-5.73z" fill="#71DB87"/>
  <path d="m241.3 65.11h-6.39v4.16h6.39v-4.16z" fill="#71DB87"/>
  <path d="m189.2 133.4v22.02h7.58v-22.02h-7.58z" fill="#71DB87"/>
  <path d="m199.2 133.4v22.02h7.58v-22.02h-7.58z" fill="#71DB87"/>
  <path d="m186.2 134.4v2.73h-7.28l-5.73-6.88h-20.82v-2.42h-7.18v6.03h6.59v-0.53h20.52l5.73 6.88h7.87v3.62h-11.93l-5.73-3.88h-17.94v-2.42h-4.52v5.73h4.52v-1.51h17.36l5.73 3.88h12.22v6.32h-34.72l-5.73-6.17h-33.3v-1.51h-6.88v5.43h6.58v-2.12h33.31l5.43 5.88h35.31v1.75h2.17v-20.81h-1.58z" fill="#71DB87"/>
  <path d="m6.36 147v0.79h3.24v1.64h26.31v-9.33h-23.24v-18.88h-7.08v25.78h0.77z" fill="#71DB87"/>
  <path d="m6.07 14.66v-0.79h3.19v-2.75h26.46v-5.93h2.18v22.73h-2.18v-7.02h-22.8v21.83h-7.43v-28.07h0.58z" fill="#71DB87"/>
  <path d="m13.75 92.14h-6.39v5.73h6.39v-5.73z" fill="#71DB87"/>
  <path d="m13.75 99.02h-6.39v5.43h6.39v-5.43z" fill="#71DB87"/>
  <path d="m13.46 106.2h-6.39v5.43h6.39v-5.43z" fill="#71DB87"/>
  <path d="m13.46 115h-6.1v4.51h6.1v-4.51z" fill="#71DB87"/>
  <path d="m12.92 44.74h-5.85v5.43h5.85v-5.43z" fill="#71DB87"/>
  <path d="m12.63 51.62h-5.56v5.43h5.56v-5.43z" fill="#71DB87"/>
  <path d="m12.92 58.5h-5.85v5.13h5.85v-5.13z" fill="#71DB87"/>
  <path d="m12.63 65.07h-5.56v4.2h5.56v-4.2z" fill="#71DB87"/>
  <path d="m42.57 133.4v22.02h7.58v-22.02h-7.58z" fill="#71DB87"/>
  <path d="m50.74 133.4v22.02h8.45v-22.02h-8.45z" fill="#71DB87"/>
  <path d="m62.21 133.7v21.73h1.58v-9.37h30.62v1.21h7.18v-6.04h-6.88v2.42h-31.22v-4.83h69.4v-4.83h7.58v6.04h-6.59v-3.03h-70.39v-3.3h-1.28z" fill="#71DB87"/>
  <path d="m42.28 5.04v23.62h6.63v-23.62h-6.63z" fill="#71DB87"/>
  <path d="m51.33 5.04v23.62h7.58v-23.62h-7.58z" fill="#71DB87"/>
  <path d="m61.32 5.04v23.32h2.17v-3.03h42.33v1.84h6.59v-6.58h-6.59v2.42h-42.33v-3.92h33.6l7.58-10.33h16.46l5.43 8.76h57.35v-1.84h-56.16l-6.03-8.46h-17.35l-7.58 10.03h-33.6v-12.21h-1.87z" fill="#71DB87"/>
  <path d="m143.3 5.04v6.88h6.58v-2.88h34.35v-1.56h-34.35v-2.44h-6.58z" fill="#71DB87"/>
  <path d="m189.2 5.04v23.32h6.59v-23.32h-6.59z" fill="#71DB87"/>
  <path d="m200.7 5.04v23.32h6.59v-23.32h-6.59z" fill="#71DB87"/>
  <path d="m184.9 19.09v4.52h-26.16l-6.03 6.57h-10.34v-3.02h-7.18v7.77h7.18v-2.72h11.62l6.03-6.57h24.88v3.32h2.12v-9.87h-2.12z" fill="#71DB87"/>
  <path d="m64.8 46.26h-30.92v6.32h-6.34v56.06h6.34v7.77h30.92v-7.77h5.43v-56.06h-5.43v-6.32zm-6.03 58.46h-19.16v-8.66h7.18v-11.54h5.73v-10.23h6.25v30.43zm0-41.2h-7.18v10.23h-5.73v10.77h-6.25v-29.51h19.16v8.51z" fill="#71DB87"/>
  <path d="m169.4 46.26h-30.92v6.32h-6.03v55.76h6.03v8.07h30.92v-8.07h5.73v-55.76h-5.73v-6.32zm-6.03 58.46h-19.75v-9.57h6.88v-9.87h6.34v-11.53h6.53v30.97zm-0.59-41.2h-6.04v10.23h-6.58v10.77h-5.74v-29.51h18.36v8.51z" fill="#71DB87"/>
  <path d="m208.8 46.26h-12.12v8.06h-12.12v10.94h11.83v39.9h-11.53v11.25h36.78v-11.25h-12.84v-58.9z" fill="#71DB87"/>
  <path d="m122.9 64.61h-10.54v10.18h-6.34v6.03h-6.28v-5.73h-6.34v-10.53h-11.83v10.53h6.03v6.62h4.52v11.54h-5.12v6.03h-5.43v17.13h11.14v-15.66h6.04v-6.33h6.58v5.73h6.33v16.26h11.14v-17.13h-5.43v-6.03h-5.12v-10.54h5.43v-7.77h5.22v-10.33z" fill="#71DB87"/>
</svg>